<svg xmlns="http://www.w3.org/2000/svg" width="1536" height="864" viewBox="0 0 1536 864" version="1.1"><path d="M 793.989 115.872 C 778.346 120.879, 765.671 134.292, 761.390 150.368 C 760.294 154.484, 760.021 170.099, 760.012 229.248 L 760 302.995 763.580 307.979 C 765.550 310.720, 768.685 316.008, 770.548 319.731 L 773.935 326.500 774.096 318.500 C 774.185 314.100, 774.537 276.075, 774.878 234 L 775.500 157.500 778.146 152.500 C 781.472 146.214, 788.065 139.643, 793.960 136.738 C 798.341 134.578, 799.654 134.490, 831.492 134.210 C 855.490 134, 865.086 134.243, 866.696 135.105 C 870.026 136.887, 872 142.040, 872 148.951 C 872 156.028, 873.734 160.102, 877.472 161.805 C 879.381 162.675, 892.321 163, 925.031 163 L 969.968 163 973.166 160.143 C 976.153 157.474, 976.403 156.734, 976.961 148.893 C 977.589 140.068, 978.798 136.714, 981.957 135.023 C 983.126 134.397, 994.477 134, 1011.184 134.001 L 1038.500 134.002 1044.522 136.851 C 1052.026 140.401, 1059.120 148.033, 1061.953 155.605 L 1064.014 161.112 1063.757 440.806 L 1063.500 720.500 1060.568 726.290 C 1057.143 733.054, 1050.774 739.290, 1044.176 742.339 L 1039.500 744.500 919.500 744.500 L 799.500 744.500 794.783 742.321 C 787.748 739.071, 780.722 731.971, 777.380 724.734 L 774.500 718.500 774 648 C 773.500 577.539, 773.499 577.504, 771.701 584.914 C 770.711 588.992, 767.674 599.086, 764.951 607.346 L 760 622.364 760 674.577 C 760 723.835, 760.112 727.153, 761.985 733.217 C 767.302 750.429, 782.106 763.751, 799.434 766.916 C 807.816 768.447, 1032.852 768.427, 1040.201 766.895 C 1058.708 763.035, 1074.635 747.114, 1077.995 729.114 C 1078.653 725.584, 1079 625.930, 1079 440.074 C 1079 127.378, 1079.492 151.331, 1072.813 138.800 C 1067.038 127.965, 1053.806 117.808, 1041.888 115.061 C 1039.056 114.408, 995.295 114.059, 918.500 114.078 C 807.601 114.106, 799.125 114.228, 793.989 115.872 M 493.462 165.407 C 480.310 168.415, 465.748 177.343, 457.909 187.204 C 442.551 206.526, 439.714 233.509, 450.691 255.871 C 455.905 266.493, 467.597 278.232, 478.001 283.291 C 482.125 285.297, 486.850 287.193, 488.500 287.504 C 490.156 287.816, 489.066 287.096, 486.069 285.897 C 460.171 275.539, 444.959 253.572, 445.015 226.614 C 445.034 217.369, 447.215 208.350, 451.687 199.015 C 456.755 188.439, 468.511 176.720, 479.185 171.605 C 497.444 162.856, 516.968 162.889, 534.871 171.701 C 544.340 176.361, 556.991 188.497, 561.765 197.500 C 563.515 200.800, 564.959 203.019, 564.973 202.431 C 565.032 200.060, 557.136 188.610, 551.500 182.896 C 544.571 175.871, 535.287 170.068, 526 166.959 C 517.725 164.189, 502.055 163.442, 493.462 165.407 M 906.226 199.040 C 899.426 201.771, 903.259 211.260, 910.588 209.839 C 913.886 209.199, 913.250 207.187, 909.801 207.347 C 906.766 207.488, 906.500 207.258, 906.500 204.500 C 906.500 201.752, 906.773 201.512, 909.750 201.647 C 913.386 201.812, 913.995 200.603, 911.066 199.035 C 908.851 197.850, 909.191 197.849, 906.226 199.040 M 915 204 C 915 208.667, 915.333 210, 916.500 210 C 917.500 210, 918 209, 918 207 C 918 205, 918.500 204, 919.500 204 C 920.500 204, 921 205, 921 207 C 921 209, 921.500 210, 922.500 210 C 923.537 210, 924 208.958, 924 206.622 C 924 202.925, 921.887 200.446, 919.513 201.357 C 918.478 201.754, 918 201.315, 918 199.969 C 918 198.885, 917.325 198, 916.500 198 C 915.333 198, 915 199.333, 915 204 M 809.241 201.777 C 807.449 203.275, 805.986 204.821, 805.991 205.214 C 806.003 206.157, 813.177 211.011, 814.482 210.959 C 815.042 210.937, 813.942 209.587, 812.038 207.959 L 808.576 205 812.038 202.041 C 814.115 200.265, 814.900 199.076, 814 199.068 C 813.175 199.060, 811.033 200.279, 809.241 201.777 M 936.076 200.857 C 935.416 202.090, 935.420 203.939, 936.088 206.357 C 936.896 209.284, 937.576 210, 939.547 210 C 940.896 210, 942 209.550, 942 209 C 942 208.450, 941.325 208, 940.500 208 C 939.667 208, 939 207.111, 939 206 C 939 204.900, 939.450 204, 940 204 C 941.454 204, 941.224 202.081, 939.571 200.429 C 937.713 198.570, 937.271 198.625, 936.076 200.857 M 1036.670 200.418 C 1035.913 202.391, 1038.609 205.087, 1040.582 204.330 C 1042.835 203.466, 1041.918 199.560, 1039.377 199.197 C 1038.176 199.026, 1037.001 199.556, 1036.670 200.418 M 926.667 201.667 C 925.298 203.035, 926.068 204.215, 927.999 203.711 C 929.098 203.423, 930.250 203.596, 930.558 204.094 C 930.866 204.592, 930.281 205, 929.259 205 C 926.852 205, 925.011 206.866, 925.685 208.622 C 926.009 209.466, 927.722 210, 930.107 210 C 933.845 210, 934 209.868, 934 206.700 C 934 204.885, 933.460 202.860, 932.800 202.200 C 931.506 200.906, 927.753 200.580, 926.667 201.667 M 1036.591 208.625 C 1036.220 209.590, 1036.527 210.956, 1037.286 211.714 C 1039.198 213.627, 1042.177 212.247, 1041.803 209.623 C 1041.419 206.934, 1037.525 206.188, 1036.591 208.625 M 1036.994 216.507 C 1035.891 217.836, 1035.918 218.347, 1037.158 219.587 C 1039.179 221.608, 1042.191 220.341, 1041.803 217.633 C 1041.426 215.007, 1038.758 214.382, 1036.994 216.507 M 479.400 221.765 C 475.500 224.370, 475.836 230.772, 479.990 232.995 C 486.010 236.216, 492.242 227.244, 487.171 222.655 C 485.276 220.939, 481.316 220.486, 479.400 221.765 M 503.655 222.829 C 501.160 225.585, 501.585 229.528, 504.635 231.927 C 506.084 233.067, 507.904 234, 508.680 234 C 510.799 234, 515 229.377, 515 227.045 C 515 221.971, 507.091 219.032, 503.655 222.829 M 530 223 C 528.900 224.100, 528 225.920, 528 227.045 C 528 229.377, 532.201 234, 534.320 234 C 537.085 234, 541 229.946, 541 227.082 C 541 221.543, 534.040 218.960, 530 223 M 910.186 221.748 C 919.363 221.913, 934.663 221.913, 944.186 221.749 C 953.709 221.584, 946.200 221.449, 927.500 221.449 C 908.800 221.449, 901.009 221.583, 910.186 221.748 M 656 253 L 656 263 660.500 263 L 665 263 665 253 L 665 243 660.500 243 L 656 243 656 253 M 828.415 293.421 C 822.721 295.901, 818.436 303.931, 819.628 309.890 C 820.006 311.779, 819.559 313.089, 818.080 314.428 C 815.512 316.752, 815.404 320.151, 817.829 322.345 C 820.228 324.516, 823.287 324.445, 825.345 322.171 C 827.544 319.741, 827.432 318.301, 824.939 316.968 C 821.751 315.261, 822.734 311.527, 826.405 311.397 C 828.289 311.330, 829.964 310.397, 831.168 308.744 C 832.505 306.908, 833.626 306.351, 835.171 306.755 C 836.955 307.222, 837.225 306.968, 836.774 305.245 C 836.192 303.016, 841.169 295.994, 843.323 296.007 C 843.970 296.011, 845.551 297.556, 846.835 299.442 C 848.845 302.395, 849.123 303.851, 848.835 309.938 C 848.480 317.437, 849.460 319.395, 850.580 313.424 C 851.439 308.844, 850.476 301.820, 848.450 297.904 C 845.680 292.547, 835.602 290.292, 828.415 293.421 M 813.242 332.994 C 811.380 334.129, 809.023 336.960, 807.742 339.598 L 805.500 344.215 810.559 348.857 C 817.189 354.942, 824.186 357.502, 834 357.434 C 843.131 357.371, 850.819 354.607, 856.262 349.429 L 860.025 345.851 858.270 342.880 C 855.200 337.682, 851.403 334.817, 846.330 333.869 C 843.594 333.358, 841.384 333.347, 841.219 333.843 C 839.373 339.380, 833.848 339.746, 829.422 334.625 C 826.614 331.377, 825.778 331, 821.394 331.004 C 818.277 331.006, 815.317 331.729, 813.242 332.994 M 709.500 340.646 C 702.900 340.831, 670.218 341.391, 636.874 341.890 C 580.125 342.739, 575.968 342.921, 571.874 344.740 C 561.456 349.369, 555.941 357.235, 555.219 368.494 C 554.813 374.821, 555.087 376.481, 557.311 381.139 C 561.420 389.745, 567.117 394.670, 575.500 396.864 C 578.304 397.598, 602.673 397.535, 657 396.656 C 731.846 395.444, 734.657 395.330, 739.089 393.328 C 749.206 388.758, 755.432 379.109, 755.432 368 C 755.432 360.135, 752.913 353.980, 747.467 348.533 C 740.063 341.130, 734.364 339.946, 709.500 340.646 M 700.074 358.421 C 696.779 361.929, 696.958 367.707, 700.456 370.716 C 704.386 374.096, 709.167 373.779, 712.411 369.923 C 715.361 366.417, 715.625 364.109, 713.537 360.072 C 711.018 355.201, 703.917 354.330, 700.074 358.421 M 599.856 358.516 C 594.304 361.532, 594.451 370.630, 600.098 373.551 C 609.123 378.218, 617.259 367.105, 610.077 359.923 C 606.874 356.720, 603.913 356.312, 599.856 358.516 M 638.044 367.800 C 637.937 378.265, 648.548 386.796, 658.855 384.532 C 665.282 383.120, 672.017 375.903, 671.949 370.500 L 671.912 367.500 669.959 371.196 C 666.792 377.194, 661.618 380.500, 655.401 380.500 C 647.868 380.500, 642.605 376.180, 639.492 367.442 L 638.088 363.500 638.044 367.800 M 439.073 395.927 C 437.341 397.659, 437 399.244, 437 405.559 C 437 409.716, 436.602 412.872, 436.116 412.571 C 435.629 412.271, 434.666 409.031, 433.976 405.373 C 432.599 398.076, 430.309 394.845, 427.107 395.682 C 424.148 396.456, 423.764 398.895, 425.463 406.107 C 428.318 418.217, 427.213 419.041, 421.570 409.008 C 419.408 405.165, 416.788 401.750, 415.748 401.420 C 414.016 400.870, 410 403.334, 410 404.947 C 410 405.297, 412.261 409.527, 415.024 414.346 C 419.806 422.686, 419.997 423.298, 418.985 427.054 C 415.720 439.182, 428.781 451.779, 440.868 448.158 C 448.185 445.965, 454.008 439.373, 453.993 433.300 C 453.988 431.128, 455.385 429.242, 460.219 424.894 C 466.154 419.555, 466.394 419.161, 465.247 416.644 C 463.610 413.050, 461.027 413.300, 455.946 417.545 L 451.703 421.090 448.886 418.391 C 446.236 415.852, 446.052 415.128, 445.784 406.215 C 445.531 397.760, 445.265 396.582, 443.323 395.296 C 441.365 393.998, 440.939 394.061, 439.073 395.927 M 771.331 406.250 C 770.194 408.587, 767.179 412.816, 764.632 415.647 L 760 420.794 760.008 447.147 L 760.015 473.500 767.008 477.108 L 774 480.717 774 441.358 C 774 419.711, 773.865 402, 773.699 402 C 773.534 402, 772.468 403.913, 771.331 406.250 M 600.948 438.638 C 599.434 442.618, 600.607 447.529, 603.971 451.294 L 606.835 454.500 659.507 454.776 C 711.478 455.048, 712.225 455.024, 715.571 452.956 C 719.178 450.727, 721.485 445.480, 720.847 440.956 L 720.500 438.500 710.500 439 C 689.956 440.027, 625.633 439.454, 615.154 438.151 C 609.464 437.443, 604.183 436.624, 603.418 436.330 C 602.543 435.994, 601.628 436.849, 600.948 438.638 M 989.750 439.080 C 987.675 440.289, 987.405 445.261, 989.328 446.857 C 990.083 447.484, 997.414 448.250, 1006.327 448.635 C 1020.612 449.251, 1022.176 449.150, 1024 447.500 C 1026.641 445.110, 1026.540 441.491, 1023.777 439.557 C 1022 438.312, 1018.546 438.006, 1006.527 438.030 C 998.191 438.047, 990.721 438.515, 989.750 439.080 M 1005.677 456.782 C 996.931 456.991, 993.960 457.382, 994.259 458.282 C 994.537 459.119, 998.162 459.589, 1005.850 459.783 C 1015.285 460.022, 1017.132 459.819, 1017.642 458.490 C 1017.975 457.623, 1018.079 456.821, 1017.874 456.707 C 1017.668 456.593, 1012.180 456.627, 1005.677 456.782 M 461.500 483.935 C 451.090 486.469, 444 495.206, 444 505.500 C 444 524.214, 466.791 534.058, 480.342 521.197 C 489.706 512.309, 490.009 498.914, 481.048 489.952 C 475.144 484.049, 468.912 482.131, 461.500 483.935 M 539.487 497.412 C 519.554 511.051, 524.476 542.621, 547.620 549.586 C 550.210 550.366, 552.461 550.872, 552.622 550.711 C 552.783 550.550, 552.279 546.162, 551.502 540.959 C 550.189 532.168, 549.011 520.730, 547.462 501.750 C 547.060 496.827, 546.400 494, 545.651 494 C 545.003 494, 542.229 495.535, 539.487 497.412 M 784 503.251 C 784 508.500, 780.819 537.772, 779.156 547.824 L 778.275 553.148 780.888 552.505 C 788.574 550.616, 797.085 542.620, 800.342 534.230 C 803.819 525.274, 801.368 513.295, 794.392 505.144 C 791.318 501.554, 786.423 498, 784.550 498 C 784.247 498, 784 500.363, 784 503.251 M 725.500 507.056 C 716.586 508.895, 697.564 511.077, 681.855 512.063 C 666.429 513.030, 654.304 512.687, 627 510.508 L 621.500 510.069 626.500 510.998 C 635.697 512.705, 664.372 514.172, 676 513.529 C 698.075 512.310, 731.140 508.193, 732.887 506.447 C 733.520 505.814, 730.185 506.089, 725.500 507.056 M 830 511.118 C 822.966 513.909, 817.793 523.100, 819.884 529.096 C 820.702 531.443, 820.614 532, 819.427 532 C 818.618 532, 817.445 533.125, 816.818 534.500 C 814.328 539.965, 820.717 545.376, 825.040 541.464 C 827.543 539.198, 827.530 537.354, 825 536 C 823.830 535.374, 823 533.906, 823 532.465 C 823 530.105, 823.874 529.538, 826.871 529.953 C 827.624 530.058, 829.521 528.917, 831.084 527.419 C 833.461 525.142, 834.180 524.904, 835.464 525.970 C 836.760 527.046, 837 526.926, 837 525.206 C 837 524.084, 836.594 523.017, 836.097 522.833 C 835.601 522.650, 836.696 520.773, 838.530 518.661 C 840.907 515.925, 842.397 514.991, 843.716 515.410 C 847.044 516.466, 848.995 521.300, 849.063 528.654 C 849.116 534.330, 849.302 535.073, 850.153 533 C 851.765 529.074, 850.538 519.564, 847.950 515.930 C 844.243 510.724, 836.337 508.605, 830 511.118 M 651.618 531.112 C 645.244 532.609, 636.153 538.036, 631.687 543.010 C 613.656 563.098, 619.738 593.949, 643.987 605.404 C 652.924 609.625, 664.291 610.241, 673.327 606.993 C 690.675 600.758, 700.859 585.396, 699.798 567.065 C 698.413 543.138, 674.955 525.634, 651.618 531.112 M 652.071 542.165 C 647.190 543.567, 640.356 548.526, 637.086 553.039 C 633.246 558.341, 631.627 564.764, 632.232 572.299 C 633.999 594.316, 658.927 605.663, 677.564 592.935 C 688.386 585.544, 692.418 569.505, 686.495 557.401 C 680.252 544.641, 665.770 538.231, 652.071 542.165 M 818 549.930 C 812.324 551.065, 809.986 552.866, 807.914 557.700 L 805.960 562.259 808.485 565.569 C 809.932 567.466, 813.883 570.293, 817.740 572.190 C 823.927 575.233, 825.236 575.500, 833.985 575.500 C 842.312 575.500, 844.190 575.161, 849.030 572.784 C 852.072 571.290, 855.833 568.740, 857.387 567.118 L 860.212 564.169 857.068 559.599 C 853.411 554.283, 851.690 553.193, 845.646 552.365 C 841.727 551.828, 841.134 552.004, 840.538 553.880 C 839.686 556.563, 836.517 558.299, 833.953 557.485 C 832.868 557.141, 830.560 555.091, 828.823 552.930 C 825.567 548.878, 824.601 548.610, 818 549.930 M 804.367 585.383 C 794.040 588.724, 788.498 596.769, 789.177 607.433 C 790.374 626.232, 811.136 634.434, 825.506 621.786 C 834.279 614.064, 835.085 601.133, 827.357 592.104 C 825.400 589.818, 822.439 587.244, 820.778 586.385 C 816.609 584.229, 809.308 583.784, 804.367 585.383 M 989.200 634.200 C 987.299 636.101, 987.742 640.792, 989.934 641.965 C 992.756 643.475, 1023.269 643.331, 1024.800 641.800 C 1026.483 640.117, 1026.294 636.436, 1024.429 634.571 C 1023.129 633.272, 1020.048 633, 1006.629 633 C 995.340 633, 990.035 633.365, 989.200 634.200 M 994.001 652.643 C 993.999 654.500, 996.628 655, 1006.382 655 C 1014.731 655, 1018 654.170, 1018 652.048 C 1018 651.745, 1012.601 651.497, 1006.001 651.498 C 997.670 651.499, 994.002 651.849, 994.001 652.643 M 841.500 656.942 C 831.303 658.644, 825.699 665.706, 826.124 676.320 C 826.342 681.762, 825.991 683.110, 823.186 687.611 C 819.537 693.463, 819.170 696.485, 821.928 697.961 C 824.759 699.477, 826.741 698.297, 829.622 693.383 C 831.034 690.972, 832.357 689, 832.561 689 C 832.765 689, 834.511 689.753, 836.440 690.673 C 839.578 692.169, 840.248 693.244, 842.784 700.852 C 845.796 709.888, 847.774 712.257, 850.750 710.394 C 853.274 708.814, 853.359 705.323, 851.037 698.593 C 847.577 688.561, 848.873 688.504, 854.433 698.446 C 858.390 705.522, 861.047 707.173, 864.072 704.435 C 865.132 703.475, 865.995 702.197, 865.989 701.595 C 865.983 700.993, 863.993 697.362, 861.568 693.527 C 859.143 689.691, 857.392 686.174, 857.678 685.711 C 858.209 684.853, 859.285 685.630, 866.728 692.243 C 871.754 696.710, 874.571 697.037, 876.251 693.349 C 877.410 690.804, 877.150 690.416, 869.723 683.599 C 865.306 679.545, 861.990 675.692, 861.994 674.616 C 862.005 671.258, 859.800 665.275, 857.624 662.755 C 853.587 658.082, 847.601 655.923, 841.500 656.942 M 652.250 769.750 C 717.562 769.892, 824.437 769.892, 889.750 769.750 C 955.062 769.608, 901.625 769.492, 771 769.492 C 640.375 769.492, 586.937 769.608, 652.250 769.750" stroke="none" fill="#455a64" fill-rule="evenodd"/><path d="M 655.020 216.752 C 649.523 219.513, 646.726 224.475, 647.286 230.475 C 647.690 234.807, 648.299 235.938, 652.003 239.225 C 655.417 242.255, 657.048 243, 660.261 243 C 668.145 243, 674 237.034, 674 229 C 674 223.135, 671.597 219.174, 666.684 216.943 C 661.471 214.577, 659.416 214.543, 655.020 216.752 M 642.675 264.056 C 626.170 265.974, 607.504 271.185, 594.500 277.504 C 582.929 283.127, 574.980 288.866, 565.500 298.442 C 553.224 310.842, 546.117 323.281, 541.473 340.500 L 539.315 348.500 532.908 349.071 C 525.106 349.766, 520.024 352.070, 515.881 356.788 C 511.572 361.696, 509.800 366.420, 509.800 373 C 509.800 382.627, 514.691 390.596, 523.500 395.321 C 526.592 396.979, 529.226 397.464, 535.099 397.457 L 542.697 397.448 546.099 403.331 C 550.818 411.493, 560.878 420.683, 570.528 425.648 C 591.768 436.577, 614.848 439.991, 667.500 439.993 C 711.096 439.994, 729.606 437.424, 746.693 428.999 C 756.866 423.983, 767.213 414.276, 771.950 405.303 L 775.222 399.106 781.986 399.232 C 787.502 399.334, 789.789 398.849, 794.383 396.601 C 814.204 386.903, 811.743 357.789, 790.568 351.471 C 787.856 350.662, 784.477 350, 783.060 350 C 780.667 350, 780.328 349.398, 778.306 341.577 C 773.334 322.343, 766.320 309.552, 753.958 297.172 C 734.532 277.719, 710.305 267.120, 678.098 263.986 C 666.930 262.899, 652.384 262.928, 642.675 264.056 M 583.394 289.643 C 576.620 294.686, 566.651 304.435, 561.555 311 C 557.302 316.479, 550.358 328, 551.309 328 C 551.584 328, 553.266 325.413, 555.047 322.250 C 561.496 310.797, 573.208 297.878, 584.250 290.035 C 588.589 286.953, 589.627 286, 588.644 286 C 588.448 286, 586.085 287.640, 583.394 289.643 M 651.750 335.746 C 657.388 335.924, 666.612 335.924, 672.250 335.746 C 677.888 335.568, 673.275 335.422, 662 335.422 C 650.725 335.422, 646.112 335.568, 651.750 335.746 M 709.500 340.646 C 702.900 340.831, 670.218 341.391, 636.874 341.890 C 580.125 342.739, 575.968 342.921, 571.874 344.740 C 561.456 349.369, 555.941 357.235, 555.219 368.494 C 554.813 374.821, 555.087 376.481, 557.311 381.139 C 561.420 389.745, 567.117 394.670, 575.500 396.864 C 578.304 397.598, 602.673 397.535, 657 396.656 C 731.846 395.444, 734.657 395.330, 739.089 393.328 C 749.206 388.758, 755.432 379.109, 755.432 368 C 755.432 360.135, 752.913 353.980, 747.467 348.533 C 740.063 341.130, 734.364 339.946, 709.500 340.646 M 1003.720 415.288 C 1002.927 417.354, 1004.475 419.248, 1006.620 418.835 C 1009.277 418.323, 1009.081 414.583, 1006.377 414.197 C 1005.210 414.031, 1004.014 414.521, 1003.720 415.288 M 995.519 424.538 C 990.231 426.554, 985.211 431.565, 983.815 436.222 C 983.049 438.781, 982.100 440, 980.877 440 C 976.442 440, 976.390 447.558, 980.817 448.669 C 982.235 449.025, 984.460 450.582, 985.762 452.129 C 988.904 455.863, 993.475 456.989, 1005.500 456.989 C 1017.207 456.989, 1021.858 455.907, 1026.277 452.156 C 1028.050 450.651, 1030.737 448.885, 1032.250 448.232 C 1036.127 446.556, 1036.024 442.495, 1032.048 440.213 C 1030.424 439.281, 1028.850 437.537, 1028.548 436.336 C 1027.697 432.944, 1023.162 428.125, 1018.624 425.790 C 1013.250 423.026, 1001.201 422.372, 995.519 424.538 M 989.750 439.080 C 987.675 440.289, 987.405 445.261, 989.328 446.857 C 990.083 447.484, 997.414 448.250, 1006.327 448.635 C 1020.612 449.251, 1022.176 449.150, 1024 447.500 C 1026.641 445.110, 1026.540 441.491, 1023.777 439.557 C 1022 438.312, 1018.546 438.006, 1006.527 438.030 C 998.191 438.047, 990.721 438.515, 989.750 439.080 M 447.736 444.526 C 443.560 448.156, 437.715 449.604, 432.674 448.258 C 430.388 447.648, 428.400 447.267, 428.255 447.411 C 427.242 448.425, 442.694 495.135, 444.629 496.909 C 444.984 497.234, 445.489 496.894, 445.753 496.153 C 446.697 493.495, 452.379 487.848, 455.905 486.061 C 457.882 485.059, 461.413 483.921, 463.750 483.532 C 466.087 483.143, 468 482.643, 468 482.422 C 468 482.201, 464.391 473.803, 459.981 463.760 C 455.571 453.717, 451.633 444.740, 451.231 443.812 C 450.576 442.299, 450.214 442.373, 447.736 444.526 M 632 463.060 C 592.131 466.751, 563.252 475.231, 551.064 486.824 C 546.457 491.207, 546.589 490.241, 548.032 509.050 C 550.948 547.043, 558.851 585.826, 569.557 614.673 C 584.461 654.837, 607.184 682.590, 634.418 693.893 C 654.056 702.043, 679.961 702.135, 699.033 694.121 C 718.430 685.972, 736.871 667.345, 749.645 643 C 761.774 619.885, 770.695 593.418, 775.598 566 C 776.533 560.775, 777.614 555.888, 778 555.140 C 778.429 554.310, 781.782 561.015, 786.601 572.342 C 794.223 590.254, 794.570 590.853, 796.500 589.425 C 800.394 586.541, 805.558 584.717, 810.130 584.609 L 814.760 584.500 812.986 580 C 812.010 577.525, 810.060 572.903, 808.652 569.730 C 807.244 566.556, 806.058 563.749, 806.016 563.493 C 805.902 562.791, 802.305 554.281, 799.248 547.477 L 796.541 541.453 793.726 544.659 C 791.066 547.689, 781.971 553, 779.442 553 C 778.566 553, 778.599 550.988, 779.575 544.895 C 781.110 535.306, 783.756 509.813, 784.391 498.500 L 784.839 490.500 780.170 485.998 C 768.498 474.746, 745.102 467.126, 711 463.469 C 696.408 461.904, 647.231 461.649, 632 463.060 M 997 464.589 C 992.008 466.409, 988 468.409, 988 469.080 C 988 469.507, 990.587 470.832, 993.750 472.025 C 998.437 473.793, 1000.979 474.112, 1007.500 473.749 C 1014.764 473.345, 1023 470.822, 1023 469 C 1023 468.654, 1021.313 467.541, 1019.250 466.527 C 1015.529 464.697, 1000.334 463.374, 997 464.589 M 487.484 507.158 C 486.228 514.693, 481.564 521.574, 475.543 524.772 C 473.804 525.696, 474.041 525.934, 477.675 526.912 C 486.699 529.342, 527.303 534.030, 528.548 532.785 C 528.827 532.506, 528.593 531.061, 528.028 529.574 C 526.531 525.636, 526.770 516.903, 528.511 511.970 C 529.342 509.615, 529.904 507.600, 529.761 507.493 C 529.617 507.386, 521.625 506.528, 512 505.585 C 502.375 504.643, 493.084 503.635, 491.353 503.344 C 488.306 502.833, 488.184 502.953, 487.484 507.158 M 725.500 507.056 C 716.586 508.895, 697.564 511.077, 681.855 512.063 C 666.429 513.030, 654.304 512.687, 627 510.508 L 621.500 510.069 626.500 510.998 C 635.697 512.705, 664.372 514.172, 676 513.529 C 698.075 512.310, 731.140 508.193, 732.887 506.447 C 733.520 505.814, 730.185 506.089, 725.500 507.056 M 662 519 L 639.500 519.558 661 519.670 C 672.825 519.732, 685.200 519.448, 688.500 519.038 C 694.462 518.299, 694.468 518.295, 689.500 518.368 C 686.750 518.409, 674.375 518.693, 662 519 M 651.618 531.112 C 645.244 532.609, 636.153 538.036, 631.687 543.010 C 613.656 563.098, 619.738 593.949, 643.987 605.404 C 652.924 609.625, 664.291 610.241, 673.327 606.993 C 690.675 600.758, 700.859 585.396, 699.798 567.065 C 698.413 543.138, 674.955 525.634, 651.618 531.112 M 653 554.489 L 645.500 558.766 645.500 568.088 L 645.500 577.410 652.908 581.777 L 660.317 586.144 663.741 584.322 C 665.625 583.320, 667.402 582.127, 667.691 581.671 C 667.980 581.215, 666.514 581.715, 664.433 582.782 L 660.651 584.723 653.825 580.616 L 647 576.510 647.017 568.005 L 647.034 559.500 654.040 555.719 L 661.045 551.938 667.975 555.986 L 674.905 560.033 675.260 566.266 L 675.615 572.500 675.807 565.864 L 676 559.228 668.750 554.969 C 664.763 552.627, 661.275 550.598, 661 550.462 C 660.725 550.325, 657.125 552.137, 653 554.489 M 1003.958 609.550 C 1002.896 610.831, 1002.961 611.390, 1004.336 612.764 C 1005.888 614.317, 1006.112 614.317, 1007.664 612.764 C 1009.039 611.390, 1009.104 610.831, 1008.042 609.550 C 1007.334 608.698, 1006.415 608, 1006 608 C 1005.585 608, 1004.666 608.698, 1003.958 609.550 M 999.654 618.038 C 992.594 619.238, 987.233 623.175, 984.650 629.057 C 983.467 631.750, 981.948 633.963, 981.273 633.976 C 980.598 633.989, 979.309 635.125, 978.408 636.500 C 976.891 638.816, 976.891 639.184, 978.408 641.500 C 979.309 642.875, 980.745 644, 981.600 644 C 982.455 644, 984.473 645.319, 986.085 646.931 C 989.955 650.801, 997.779 652.430, 1009.032 651.706 C 1018.826 651.077, 1025.181 648.900, 1027.484 645.383 C 1028.366 644.037, 1029.445 643.157, 1029.881 643.426 C 1030.317 643.696, 1031.647 643.235, 1032.837 642.402 C 1036.479 639.851, 1035.136 634, 1030.908 634 C 1029.906 634, 1028.942 632.904, 1028.542 631.311 C 1026.156 621.806, 1013.013 615.767, 999.654 618.038 M 825.303 621.953 C 821.493 625.335, 815.514 628, 811.741 628 C 810.302 628, 813.154 635.445, 824.912 662.383 L 827.043 667.267 829.772 663.720 C 832.928 659.618, 837.747 657, 842.142 657 C 846.030 657, 846.136 657.424, 836.747 635.384 L 829.455 618.268 825.303 621.953 M 989.200 634.200 C 987.299 636.101, 987.742 640.792, 989.934 641.965 C 992.756 643.475, 1023.269 643.331, 1024.800 641.800 C 1026.483 640.117, 1026.294 636.436, 1024.429 634.571 C 1023.129 633.272, 1020.048 633, 1006.629 633 C 995.340 633, 990.035 633.365, 989.200 634.200 M 995.180 659.838 C 987.179 662.699, 986.820 663.577, 992.572 666.219 C 999.334 669.326, 1011.415 669.344, 1018.250 666.257 C 1020.862 665.078, 1023 663.837, 1023 663.500 C 1023 661.966, 1013.291 658.833, 1007.218 658.407 C 1002.206 658.055, 999.149 658.418, 995.180 659.838 M 611.575 672.614 C 616.859 677.733, 624 682.949, 624 681.689 C 624 681.456, 622.111 680.016, 619.802 678.487 C 617.493 676.959, 613.330 673.689, 610.552 671.219 C 607.135 668.182, 607.466 668.634, 611.575 672.614" stroke="none" fill="#2566a0" fill-rule="evenodd"/><path d="M 0 432.001 L 0 864.001 768.250 863.751 L 1536.500 863.500 1536.751 431.750 L 1537.002 -0 768.501 -0 L 0 0 0 432.001 M 0.495 432.500 C 0.495 670.100, 0.610 767.151, 0.750 648.168 C 0.890 529.186, 0.890 334.786, 0.750 216.168 C 0.610 97.551, 0.495 194.900, 0.495 432.500 M 793.989 115.872 C 778.346 120.879, 765.671 134.292, 761.390 150.368 C 760.294 154.485, 760.021 170.122, 760.012 229.396 L 760 303.292 753.282 296.541 C 734.600 277.766, 709.928 267.083, 678.098 263.986 C 672.819 263.472, 667.712 263.040, 666.750 263.026 C 665.198 263.003, 665 261.834, 665 252.716 L 665 242.431 668.005 240.656 C 673.709 237.287, 675.804 228.388, 672.429 221.863 C 670.390 217.920, 663.124 214.567, 658.499 215.434 C 651.228 216.798, 646.448 223.403, 647.293 230.916 C 647.720 234.707, 648.517 236.129, 651.905 239.136 L 656 242.772 656 252.784 L 656 262.797 648.750 263.469 C 591.320 268.789, 553.488 295.955, 541.473 340.500 L 539.315 348.500 532.908 349.071 C 525.106 349.766, 520.024 352.070, 515.881 356.788 C 511.572 361.696, 509.800 366.420, 509.800 373 C 509.800 379.700, 511.969 385.319, 516.301 389.838 C 521.636 395.403, 526.502 397.409, 534.961 397.529 L 542.422 397.634 546.549 404.067 C 556.318 419.294, 573.213 429.720, 596.670 434.998 L 601.840 436.161 600.790 439.174 C 599.416 443.114, 601.076 448.783, 604.563 452.060 L 607.160 454.500 659.670 454.776 C 711.257 455.047, 712.239 455.016, 715.526 452.984 C 719.349 450.621, 721.502 445.481, 720.711 440.605 L 720.195 437.427 728.952 435.335 C 739.300 432.863, 748.849 428.761, 754.757 424.252 C 757.100 422.463, 759.238 421, 759.509 421 C 759.779 421, 760 432.877, 760 447.394 L 760 473.788 752.250 471.308 C 732.065 464.850, 707.352 462.025, 670.911 462.011 C 629.405 461.994, 601.426 465.324, 577 473.188 C 563.231 477.622, 548.677 486.545, 547.438 491.315 C 547.108 492.581, 545.230 494.263, 542.971 495.315 C 538.805 497.254, 534.455 500.977, 531.731 504.933 L 530.055 507.367 511.777 505.588 C 487.557 503.232, 487.762 503.290, 486.629 498.500 C 485.394 493.276, 477.737 485.609, 472.525 484.377 C 468.670 483.465, 468.654 483.440, 461.330 466.982 C 450.343 442.289, 450.517 442.834, 452.411 439.172 C 453.285 437.482, 453.997 434.839, 453.993 433.300 C 453.988 431.128, 455.385 429.242, 460.219 424.894 C 466.154 419.555, 466.394 419.161, 465.247 416.644 C 463.610 413.050, 461.027 413.300, 455.946 417.545 L 451.703 421.090 448.886 418.391 C 446.236 415.852, 446.052 415.128, 445.784 406.215 C 445.531 397.760, 445.265 396.582, 443.323 395.296 C 441.365 393.998, 440.939 394.061, 439.073 395.927 C 437.341 397.659, 437 399.244, 437 405.559 C 437 409.716, 436.602 412.872, 436.116 412.571 C 435.629 412.271, 434.666 409.031, 433.976 405.373 C 432.599 398.076, 430.309 394.845, 427.107 395.682 C 424.148 396.456, 423.764 398.895, 425.463 406.107 C 428.318 418.217, 427.213 419.041, 421.570 409.008 C 419.408 405.165, 416.788 401.750, 415.748 401.420 C 414.016 400.870, 410 403.334, 410 404.947 C 410 405.297, 412.261 409.527, 415.024 414.346 C 419.806 422.686, 419.997 423.298, 418.985 427.054 C 417.492 432.601, 419.230 438.209, 424.068 443.458 C 427.483 447.162, 428.553 449.588, 432.053 461.558 C 434.276 469.160, 437.943 480.132, 440.202 485.940 C 443.724 494.996, 444.278 497.444, 444.090 503.128 C 443.592 518.211, 453.578 528.041, 468.063 526.728 C 472.049 526.367, 477.219 526.816, 483.216 528.044 C 488.222 529.070, 500.565 530.697, 510.644 531.661 L 528.971 533.413 531.552 537.456 C 534.955 542.788, 541.771 547.859, 547.984 549.680 C 551.707 550.771, 553.113 551.711, 553.439 553.325 C 559.967 585.655, 564.158 600.993, 571.656 620 C 586.326 657.186, 608.295 683.050, 634.418 693.893 C 654.056 702.043, 679.961 702.135, 699.033 694.121 C 714.022 687.824, 729.885 673.972, 741.040 657.441 C 745.482 650.858, 753.970 634.840, 758.760 624 C 759.585 622.133, 759.882 634.830, 759.932 674.145 C 759.996 723.725, 760.116 727.163, 761.985 733.217 C 767.302 750.429, 782.106 763.751, 799.434 766.916 C 807.816 768.447, 1032.852 768.427, 1040.201 766.895 C 1058.708 763.035, 1074.635 747.114, 1077.995 729.114 C 1078.653 725.584, 1079 625.930, 1079 440.074 C 1079 127.378, 1079.492 151.331, 1072.813 138.800 C 1067.038 127.965, 1053.806 117.808, 1041.888 115.061 C 1039.056 114.408, 995.295 114.059, 918.500 114.078 C 807.601 114.106, 799.125 114.228, 793.989 115.872 M 796.591 135.573 C 789.304 138.243, 782.428 144.569, 778.190 152.500 L 775.518 157.500 774.844 242.500 L 774.169 327.500 776.497 335.024 C 777.777 339.162, 779.139 344.225, 779.524 346.274 C 780.126 349.486, 780.596 350, 782.930 350 C 787.747 350, 795.403 352.863, 799.379 356.150 C 806.834 362.315, 809.910 373.903, 806.573 383.252 C 803.004 393.252, 793.592 399.416, 782.154 399.243 C 778.056 399.181, 775.244 399.592, 774.780 400.321 C 774.368 400.970, 774.024 419.201, 774.015 440.836 L 774 480.172 779.605 485.472 C 784.679 490.270, 785.145 491.061, 784.537 493.831 C 783.929 496.599, 784.239 497.126, 787.802 499.375 C 800.375 507.312, 805.368 524.149, 799.046 537.291 L 796.741 542.081 799.799 548.791 C 801.481 552.481, 803.508 557.075, 804.304 559 L 805.751 562.500 807.816 557.807 C 810.174 552.446, 813.076 550.563, 820.531 549.553 C 825.500 548.881, 825.603 548.922, 828.772 552.866 C 830.537 555.062, 832.868 557.141, 833.953 557.485 C 836.517 558.299, 839.686 556.563, 840.538 553.880 C 841.134 552.004, 841.727 551.828, 845.646 552.365 C 851.690 553.193, 853.411 554.283, 857.068 559.599 L 860.212 564.169 857.387 567.118 C 855.833 568.740, 852.072 571.290, 849.030 572.784 C 844.190 575.161, 842.312 575.500, 833.985 575.500 C 825.246 575.500, 823.923 575.231, 817.773 572.206 C 814.090 570.394, 810.207 567.807, 809.144 566.456 C 808.082 565.105, 806.990 564, 806.718 564 C 806.446 564, 808.085 568.472, 810.362 573.938 C 814.319 583.442, 814.685 583.947, 818.732 585.513 C 824.563 587.771, 830.499 594.741, 832.032 601.133 C 833.064 605.434, 832.986 607.149, 831.511 612.599 L 829.776 619.007 837.567 637.436 L 845.357 655.865 849.789 657.557 C 856.977 660.302, 862.017 667.348, 861.994 674.616 C 861.990 675.692, 865.306 679.545, 869.723 683.599 C 877.150 690.416, 877.410 690.804, 876.251 693.349 C 874.571 697.037, 871.754 696.710, 866.728 692.243 C 859.285 685.630, 858.209 684.853, 857.678 685.711 C 857.392 686.174, 859.143 689.691, 861.568 693.527 C 863.993 697.362, 865.983 700.993, 865.989 701.595 C 865.995 702.197, 865.132 703.475, 864.072 704.435 C 861.047 707.173, 858.390 705.522, 854.433 698.446 C 848.873 688.504, 847.577 688.561, 851.037 698.593 C 853.359 705.323, 853.274 708.814, 850.750 710.394 C 847.774 712.257, 845.796 709.888, 842.784 700.852 C 840.248 693.244, 839.578 692.169, 836.440 690.673 C 834.511 689.753, 832.765 689, 832.561 689 C 832.357 689, 831.034 690.972, 829.622 693.383 C 826.741 698.297, 824.759 699.477, 821.928 697.961 C 819.186 696.494, 819.533 693.480, 823.116 687.657 C 825.876 683.171, 826.247 681.676, 826.367 674.547 C 826.501 666.604, 826.400 666.257, 818.490 647.608 L 810.478 628.716 805.702 627.503 C 791.651 623.935, 784.927 608.580, 791.621 595.348 L 794.242 590.168 786.466 571.985 C 781.725 560.899, 778.415 554.329, 777.985 555.151 C 777.596 555.893, 776.508 560.775, 775.566 566 C 774.032 574.510, 773.887 582.949, 774.177 647 L 774.500 718.500 777.380 724.734 C 780.722 731.971, 787.748 739.071, 794.783 742.321 L 799.500 744.500 919.500 744.500 L 1039.500 744.500 1044.176 742.339 C 1050.774 739.290, 1057.143 733.054, 1060.568 726.290 L 1063.500 720.500 1063.757 440.806 L 1064.014 161.112 1061.953 155.605 C 1059.120 148.033, 1052.026 140.401, 1044.522 136.851 L 1038.500 134.002 1011.184 134.001 C 994.477 134, 983.126 134.397, 981.957 135.023 C 978.798 136.714, 977.589 140.068, 976.961 148.893 C 976.403 156.734, 976.153 157.474, 973.166 160.143 L 969.968 163 924.935 163 C 876.087 163, 875.668 162.956, 873.195 157.528 C 872.538 156.086, 872 152.256, 872 149.018 C 872 142.160, 870.991 139.001, 867.873 136.096 C 865.681 134.054, 864.787 134.002, 833.061 134.070 C 807.426 134.126, 799.669 134.446, 796.591 135.573 M 493.462 165.407 C 480.310 168.415, 465.748 177.343, 457.909 187.204 C 442.551 206.526, 439.714 233.509, 450.691 255.871 C 455.905 266.493, 467.597 278.232, 478.001 283.291 C 482.125 285.297, 486.850 287.193, 488.500 287.504 C 490.156 287.816, 489.066 287.096, 486.069 285.897 C 460.171 275.539, 444.959 253.572, 445.015 226.614 C 445.034 217.369, 447.215 208.350, 451.687 199.015 C 456.755 188.439, 468.511 176.720, 479.185 171.605 C 497.444 162.856, 516.968 162.889, 534.871 171.701 C 544.340 176.361, 556.991 188.497, 561.765 197.500 C 563.515 200.800, 564.959 203.019, 564.973 202.431 C 565.032 200.060, 557.136 188.610, 551.500 182.896 C 544.571 175.871, 535.287 170.068, 526 166.959 C 517.725 164.189, 502.055 163.442, 493.462 165.407 M 906.226 199.040 C 899.426 201.771, 903.259 211.260, 910.588 209.839 C 913.886 209.199, 913.250 207.187, 909.801 207.347 C 906.766 207.488, 906.500 207.258, 906.500 204.500 C 906.500 201.752, 906.773 201.512, 909.750 201.647 C 913.386 201.812, 913.995 200.603, 911.066 199.035 C 908.851 197.850, 909.191 197.849, 906.226 199.040 M 915 204 C 915 208.667, 915.333 210, 916.500 210 C 917.500 210, 918 209, 918 207 C 918 205, 918.500 204, 919.500 204 C 920.500 204, 921 205, 921 207 C 921 209, 921.500 210, 922.500 210 C 923.537 210, 924 208.958, 924 206.622 C 924 202.925, 921.887 200.446, 919.513 201.357 C 918.478 201.754, 918 201.315, 918 199.969 C 918 198.885, 917.325 198, 916.500 198 C 915.333 198, 915 199.333, 915 204 M 809.241 201.777 C 807.449 203.275, 805.986 204.821, 805.991 205.214 C 806.003 206.157, 813.177 211.011, 814.482 210.959 C 815.042 210.937, 813.942 209.587, 812.038 207.959 L 808.576 205 812.038 202.041 C 814.115 200.265, 814.900 199.076, 814 199.068 C 813.175 199.060, 811.033 200.279, 809.241 201.777 M 936.076 200.857 C 935.416 202.090, 935.420 203.939, 936.088 206.357 C 936.896 209.284, 937.576 210, 939.547 210 C 940.896 210, 942 209.550, 942 209 C 942 208.450, 941.325 208, 940.500 208 C 939.667 208, 939 207.111, 939 206 C 939 204.900, 939.450 204, 940 204 C 941.454 204, 941.224 202.081, 939.571 200.429 C 937.713 198.570, 937.271 198.625, 936.076 200.857 M 1036.670 200.418 C 1035.913 202.391, 1038.609 205.087, 1040.582 204.330 C 1042.835 203.466, 1041.918 199.560, 1039.377 199.197 C 1038.176 199.026, 1037.001 199.556, 1036.670 200.418 M 926.667 201.667 C 925.298 203.035, 926.068 204.215, 927.999 203.711 C 929.098 203.423, 930.250 203.596, 930.558 204.094 C 930.866 204.592, 930.281 205, 929.259 205 C 926.852 205, 925.011 206.866, 925.685 208.622 C 926.009 209.466, 927.722 210, 930.107 210 C 933.845 210, 934 209.868, 934 206.700 C 934 204.885, 933.460 202.860, 932.800 202.200 C 931.506 200.906, 927.753 200.580, 926.667 201.667 M 1036.591 208.625 C 1036.220 209.590, 1036.527 210.956, 1037.286 211.714 C 1039.198 213.627, 1042.177 212.247, 1041.803 209.623 C 1041.419 206.934, 1037.525 206.188, 1036.591 208.625 M 1036.994 216.507 C 1035.891 217.836, 1035.918 218.347, 1037.158 219.587 C 1039.179 221.608, 1042.191 220.341, 1041.803 217.633 C 1041.426 215.007, 1038.758 214.382, 1036.994 216.507 M 479.400 221.765 C 475.500 224.370, 475.836 230.772, 479.990 232.995 C 486.010 236.216, 492.242 227.244, 487.171 222.655 C 485.276 220.939, 481.316 220.486, 479.400 221.765 M 503.655 222.829 C 501.160 225.585, 501.585 229.528, 504.635 231.927 C 506.084 233.067, 507.904 234, 508.680 234 C 510.799 234, 515 229.377, 515 227.045 C 515 221.971, 507.091 219.032, 503.655 222.829 M 530 223 C 528.900 224.100, 528 225.920, 528 227.045 C 528 229.377, 532.201 234, 534.320 234 C 537.085 234, 541 229.946, 541 227.082 C 541 221.543, 534.040 218.960, 530 223 M 910.186 221.748 C 919.363 221.913, 934.663 221.913, 944.186 221.749 C 953.709 221.584, 946.200 221.449, 927.500 221.449 C 908.800 221.449, 901.009 221.583, 910.186 221.748 M 583.394 289.643 C 576.620 294.686, 566.651 304.435, 561.555 311 C 557.302 316.479, 550.358 328, 551.309 328 C 551.584 328, 553.266 325.413, 555.047 322.250 C 561.496 310.797, 573.208 297.878, 584.250 290.035 C 588.589 286.953, 589.627 286, 588.644 286 C 588.448 286, 586.085 287.640, 583.394 289.643 M 828.415 293.421 C 822.721 295.901, 818.436 303.931, 819.628 309.890 C 820.006 311.779, 819.559 313.089, 818.080 314.428 C 815.512 316.752, 815.404 320.151, 817.829 322.345 C 820.228 324.516, 823.287 324.445, 825.345 322.171 C 827.544 319.741, 827.432 318.301, 824.939 316.968 C 821.751 315.261, 822.734 311.527, 826.405 311.397 C 828.289 311.330, 829.964 310.397, 831.168 308.744 C 832.505 306.908, 833.626 306.351, 835.171 306.755 C 836.955 307.222, 837.225 306.968, 836.774 305.245 C 836.192 303.016, 841.169 295.994, 843.323 296.007 C 843.970 296.011, 845.551 297.556, 846.835 299.442 C 848.845 302.395, 849.123 303.851, 848.835 309.938 C 848.480 317.437, 849.460 319.395, 850.580 313.424 C 851.439 308.844, 850.476 301.820, 848.450 297.904 C 845.680 292.547, 835.602 290.292, 828.415 293.421 M 813.242 332.994 C 811.380 334.129, 809.023 336.960, 807.742 339.598 L 805.500 344.215 810.559 348.857 C 817.189 354.942, 824.186 357.502, 834 357.434 C 843.131 357.371, 850.819 354.607, 856.262 349.429 L 860.025 345.851 858.270 342.880 C 855.200 337.682, 851.403 334.817, 846.330 333.869 C 843.594 333.358, 841.384 333.347, 841.219 333.843 C 839.373 339.380, 833.848 339.746, 829.422 334.625 C 826.614 331.377, 825.778 331, 821.394 331.004 C 818.277 331.006, 815.317 331.729, 813.242 332.994 M 651.750 335.746 C 657.388 335.924, 666.612 335.924, 672.250 335.746 C 677.888 335.568, 673.275 335.422, 662 335.422 C 650.725 335.422, 646.112 335.568, 651.750 335.746 M 700.074 358.421 C 696.779 361.929, 696.958 367.707, 700.456 370.716 C 704.386 374.096, 709.167 373.779, 712.411 369.923 C 715.361 366.417, 715.625 364.109, 713.537 360.072 C 711.018 355.201, 703.917 354.330, 700.074 358.421 M 599.856 358.516 C 594.304 361.532, 594.451 370.630, 600.098 373.551 C 609.123 378.218, 617.259 367.105, 610.077 359.923 C 606.874 356.720, 603.913 356.312, 599.856 358.516 M 638.044 367.800 C 637.937 378.265, 648.548 386.796, 658.855 384.532 C 665.282 383.120, 672.017 375.903, 671.949 370.500 L 671.912 367.500 669.959 371.196 C 666.792 377.194, 661.618 380.500, 655.401 380.500 C 647.868 380.500, 642.605 376.180, 639.492 367.442 L 638.088 363.500 638.044 367.800 M 1003.700 415.341 C 1003.417 416.078, 1003.587 417.316, 1004.077 418.091 C 1005.782 420.783, 1005.126 423, 1002.626 423 C 995.063 423, 985.833 429.488, 983.815 436.222 C 983.049 438.781, 982.100 440, 980.877 440 C 976.578 440, 976.362 447.551, 980.631 448.622 C 981.946 448.952, 984.547 450.747, 986.411 452.611 C 988.275 454.475, 990.693 456, 991.783 456 C 992.926 456, 993.989 456.848, 994.290 458 C 994.773 459.850, 995.654 460, 1006 460 C 1016.181 460, 1017.232 459.828, 1017.688 458.085 C 1017.964 457.031, 1019.263 455.900, 1020.576 455.570 C 1021.889 455.241, 1024.434 453.722, 1026.232 452.196 C 1028.029 450.669, 1030.737 448.885, 1032.250 448.232 C 1036.127 446.556, 1036.024 442.495, 1032.048 440.213 C 1030.424 439.281, 1028.850 437.537, 1028.548 436.336 C 1027.121 430.649, 1019.057 424.672, 1011.092 423.399 C 1006.884 422.726, 1005.710 420.690, 1008.133 418.267 C 1008.756 417.644, 1008.995 416.429, 1008.664 415.567 C 1007.929 413.652, 1004.409 413.492, 1003.700 415.341 M 997 464.589 C 992.008 466.409, 988 468.409, 988 469.080 C 988 469.507, 990.587 470.832, 993.750 472.025 C 998.437 473.793, 1000.979 474.112, 1007.500 473.749 C 1014.764 473.345, 1023 470.822, 1023 469 C 1023 468.654, 1021.313 467.541, 1019.250 466.527 C 1015.529 464.697, 1000.334 463.374, 997 464.589 M 830 511.118 C 822.966 513.909, 817.793 523.100, 819.884 529.096 C 820.702 531.443, 820.614 532, 819.427 532 C 818.618 532, 817.445 533.125, 816.818 534.500 C 814.328 539.965, 820.717 545.376, 825.040 541.464 C 827.543 539.198, 827.530 537.354, 825 536 C 823.830 535.374, 823 533.906, 823 532.465 C 823 530.105, 823.874 529.538, 826.871 529.953 C 827.624 530.058, 829.521 528.917, 831.084 527.419 C 833.461 525.142, 834.180 524.904, 835.464 525.970 C 836.760 527.046, 837 526.926, 837 525.206 C 837 524.084, 836.594 523.017, 836.097 522.833 C 835.601 522.650, 836.696 520.773, 838.530 518.661 C 840.907 515.925, 842.397 514.991, 843.716 515.410 C 847.044 516.466, 848.995 521.300, 849.063 528.654 C 849.116 534.330, 849.302 535.073, 850.153 533 C 851.765 529.074, 850.538 519.564, 847.950 515.930 C 844.243 510.724, 836.337 508.605, 830 511.118 M 662 519 L 639.500 519.558 661 519.670 C 672.825 519.732, 685.200 519.448, 688.500 519.038 C 694.462 518.299, 694.468 518.295, 689.500 518.368 C 686.750 518.409, 674.375 518.693, 662 519 M 652.071 542.165 C 647.190 543.567, 640.356 548.526, 637.086 553.039 C 633.246 558.341, 631.627 564.764, 632.232 572.299 C 633.999 594.316, 658.927 605.663, 677.564 592.935 C 688.386 585.544, 692.418 569.505, 686.495 557.401 C 680.252 544.641, 665.770 538.231, 652.071 542.165 M 653 554.489 L 645.500 558.766 645.500 568.088 L 645.500 577.410 652.908 581.777 L 660.317 586.144 663.741 584.322 C 665.625 583.320, 667.402 582.127, 667.691 581.671 C 667.980 581.215, 666.514 581.715, 664.433 582.782 L 660.651 584.723 653.825 580.616 L 647 576.510 647.017 568.005 L 647.034 559.500 654.040 555.719 L 661.045 551.938 667.975 555.986 L 674.905 560.033 675.260 566.266 L 675.615 572.500 675.807 565.864 L 676 559.228 668.750 554.969 C 664.763 552.627, 661.275 550.598, 661 550.462 C 660.725 550.325, 657.125 552.137, 653 554.489 M 1004.065 609.422 C 1003.157 610.516, 1003.165 611.292, 1004.100 612.789 C 1006.060 615.927, 1004.609 617.671, 999.567 618.240 C 992.920 618.989, 987.273 623.084, 984.650 629.057 C 983.467 631.750, 981.948 633.963, 981.273 633.976 C 980.598 633.989, 979.309 635.125, 978.408 636.500 C 976.891 638.816, 976.891 639.184, 978.408 641.500 C 979.309 642.875, 980.920 644, 981.988 644 C 983.056 644, 984.393 644.867, 984.960 645.926 C 985.527 646.985, 987.793 648.646, 989.995 649.618 C 992.198 650.590, 994 651.925, 994 652.585 C 994 654.508, 996.558 655, 1006.559 655 C 1015.378 655, 1016.051 654.852, 1017.530 652.595 C 1018.396 651.273, 1020.245 649.904, 1021.638 649.555 C 1023.031 649.205, 1025.279 647.723, 1026.634 646.261 C 1027.989 644.799, 1029.773 643.504, 1030.598 643.383 C 1036.195 642.561, 1036.478 634, 1030.908 634 C 1029.906 634, 1028.942 632.904, 1028.542 631.311 C 1028.171 629.832, 1026.929 627.305, 1025.783 625.695 C 1023.420 622.376, 1014.890 618.024, 1010.719 618.010 C 1007.441 617.998, 1006.145 615.598, 1007.900 612.789 C 1008.835 611.292, 1008.843 610.516, 1007.935 609.422 C 1007.286 608.640, 1006.415 608, 1006 608 C 1005.585 608, 1004.714 608.640, 1004.065 609.422 M 995.180 659.838 C 987.179 662.699, 986.820 663.577, 992.572 666.219 C 999.334 669.326, 1011.415 669.344, 1018.250 666.257 C 1020.862 665.078, 1023 663.837, 1023 663.500 C 1023 661.966, 1013.291 658.833, 1007.218 658.407 C 1002.206 658.055, 999.149 658.418, 995.180 659.838 M 611.575 672.614 C 616.859 677.733, 624 682.949, 624 681.689 C 624 681.456, 622.111 680.016, 619.802 678.487 C 617.493 676.959, 613.330 673.689, 610.552 671.219 C 607.135 668.182, 607.466 668.634, 611.575 672.614 M 652.250 769.750 C 717.562 769.892, 824.437 769.892, 889.750 769.750 C 955.062 769.608, 901.625 769.492, 771 769.492 C 640.375 769.492, 586.937 769.608, 652.250 769.750" stroke="none" fill="#fafafa" fill-rule="evenodd"/></svg>